<svg xmlns="http://www.w3.org/2000/svg" viewBox="0 0 310.04 146.35"><defs><style>.cls-1{fill:#fff;}</style></defs><title>Ativo 19</title><g id="Camada_2" data-name="Camada 2"><g id="Camada_1-2" data-name="Camada 1"><path class="cls-1" d="M166.51,61.62a14.13,14.13,0,0,1-5.13,4,13.36,13.36,0,0,1-2.9,1,14.84,14.84,0,0,1-2.95.3,14.13,14.13,0,0,1-5.44-1A14,14,0,0,1,145.66,63a13.68,13.68,0,0,1-3-4.31,13.37,13.37,0,0,1,0-10.6,13.31,13.31,0,0,1,3-4.29,14.57,14.57,0,0,1,4.45-2.88,14,14,0,0,1,5.44-1.06,13.54,13.54,0,0,1,6.11,1.37,14.38,14.38,0,0,1,4.68,3.65l-3.42,3.48a8.9,8.9,0,0,0-3.28-2.85,9.48,9.48,0,0,0-4.07-.86,9,9,0,0,0-3.48.68,9.36,9.36,0,0,0-2.85,1.88A8.82,8.82,0,0,0,147.3,50a8.33,8.33,0,0,0-.69,3.37,8.45,8.45,0,0,0,.69,3.41,9.1,9.1,0,0,0,1.92,2.78,8.66,8.66,0,0,0,2.85,1.89,8.79,8.79,0,0,0,3.48.69,8.4,8.4,0,0,0,3.31-.66,10.39,10.39,0,0,0,2.8-1.72V57.22h-5.35v-4.3h10.2Z"/><path class="cls-1" d="M193.26,40.34V54.48a14.74,14.74,0,0,1-.78,4.86,11.64,11.64,0,0,1-2.26,3.92,10.55,10.55,0,0,1-3.62,2.64,12.83,12.83,0,0,1-9.69,0,10.9,10.9,0,0,1-3.67-2.59,11.42,11.42,0,0,1-2.33-3.88,14,14,0,0,1-.81-4.81V40.34h5.05V54.68a9.14,9.14,0,0,0,.42,2.81,6.79,6.79,0,0,0,1.24,2.3,5.76,5.76,0,0,0,2,1.55,6.48,6.48,0,0,0,2.78.57,7,7,0,0,0,2.88-.54,5.49,5.49,0,0,0,2-1.5,6.53,6.53,0,0,0,1.2-2.26,9.66,9.66,0,0,0,.41-2.87V40.34Z"/><path class="cls-1" d="M214.9,59.56a6.27,6.27,0,0,1-.64,2.79,7.25,7.25,0,0,1-1.77,2.33,8.78,8.78,0,0,1-2.71,1.61,9.54,9.54,0,0,1-3.45.6,21.57,21.57,0,0,1-3.05-.19,13.29,13.29,0,0,1-2.54-.62A12.54,12.54,0,0,1,198.46,65a21.81,21.81,0,0,1-2.26-1.61l3.58-3.62a10.24,10.24,0,0,0,3.06,1.84,9.57,9.57,0,0,0,3.26.54,4.24,4.24,0,0,0,1.35-.21,3.87,3.87,0,0,0,1.11-.57,2.74,2.74,0,0,0,.75-.85,2.23,2.23,0,0,0,.28-1.08,2.57,2.57,0,0,0-.23-1.1,2.61,2.61,0,0,0-.82-.95,8.73,8.73,0,0,0-1.62-.93c-.7-.31-1.59-.67-2.68-1.06a23.27,23.27,0,0,1-2.75-1.19,9.43,9.43,0,0,1-2.31-1.61,7.32,7.32,0,0,1-1.6-2.21,7.57,7.57,0,0,1,.07-6.07,7.14,7.14,0,0,1,1.82-2.39,8.55,8.55,0,0,1,2.7-1.55,9.88,9.88,0,0,1,3.34-.55,14.25,14.25,0,0,1,5.05.78,10.91,10.91,0,0,1,3.65,2.28l-3.52,3.55A7,7,0,0,0,208.51,45a7.41,7.41,0,0,0-2.83-.5,3.94,3.94,0,0,0-1.39.23,3.57,3.57,0,0,0-1.09.6,2.94,2.94,0,0,0-.73.88,2.13,2.13,0,0,0-.28,1.06,2.46,2.46,0,0,0,.26,1.12,3.15,3.15,0,0,0,.88,1,8.62,8.62,0,0,0,1.65.94c.68.32,1.53.66,2.55,1a19.76,19.76,0,0,1,3.36,1.5,9.28,9.28,0,0,1,2.28,1.79,6.5,6.5,0,0,1,1.31,2.2A8.45,8.45,0,0,1,214.9,59.56Z"/><path class="cls-1" d="M236.37,44.87h-7.2V66.41h-5.12V44.87h-7.2v-4.5h19.52Z"/><path class="cls-1" d="M261.69,66.41h-5.54l-2.41-5.22H241.09l-2.44,5.22h-5.54l12.32-26.07h3.94ZM251.75,57l-4.33-9.38L243,57Z"/><path class="cls-1" d="M282.05,40.34l-9.87,26.07h-4.63l-10.1-26.07h5.61l6.77,18.31,6.68-18.31Z"/><path class="cls-1" d="M310,53.37A12.9,12.9,0,0,1,309,58.65a13.42,13.42,0,0,1-3,4.3,14.26,14.26,0,0,1-4.39,2.89,14.13,14.13,0,0,1-10.69,0A14.23,14.23,0,0,1,286.48,63a13.45,13.45,0,0,1-3-4.28,13.45,13.45,0,0,1,0-10.61,13.53,13.53,0,0,1,3-4.3,14,14,0,0,1,9.76-3.91A13.81,13.81,0,0,1,306,43.78a13.65,13.65,0,0,1,3,4.3A12.85,12.85,0,0,1,310,53.37Zm-5.05,0A8.33,8.33,0,0,0,304.3,50a8.79,8.79,0,0,0-1.87-2.77,9.29,9.29,0,0,0-2.79-1.89,8.68,8.68,0,0,0-6.83,0A9.29,9.29,0,0,0,290,47.23,8.79,8.79,0,0,0,288.15,50a8.55,8.55,0,0,0,0,6.73A8.73,8.73,0,0,0,290,59.51a8.94,8.94,0,0,0,2.79,1.89,8.57,8.57,0,0,0,6.83,0,8.94,8.94,0,0,0,2.79-1.89,8.73,8.73,0,0,0,1.87-2.78A8.35,8.35,0,0,0,305,53.37Z"/><path class="cls-1" d="M169.18,94a12.9,12.9,0,0,1-1.09,5.28,13.35,13.35,0,0,1-3,4.3,14.46,14.46,0,0,1-4.4,2.88,13.49,13.49,0,0,1-5.33,1.06,13.63,13.63,0,0,1-5.36-1.06,14.38,14.38,0,0,1-4.41-2.88,13.6,13.6,0,0,1-3-4.29,13.54,13.54,0,0,1,0-10.6,13.42,13.42,0,0,1,3-4.3,14,14,0,0,1,9.77-3.91,13.65,13.65,0,0,1,5.33,1,13.92,13.92,0,0,1,4.4,2.88,13.57,13.57,0,0,1,3,4.3A12.89,12.89,0,0,1,169.18,94Zm-5.05,0a8.29,8.29,0,0,0-.68-3.37A8.91,8.91,0,0,0,158.78,86,8.66,8.66,0,0,0,152,86a8.91,8.91,0,0,0-4.67,4.66,8.64,8.64,0,0,0,0,6.72,8.69,8.69,0,0,0,1.88,2.79A9,9,0,0,0,152,102a8.66,8.66,0,0,0,6.82,0,9,9,0,0,0,2.79-1.89,8.69,8.69,0,0,0,1.88-2.79A8.33,8.33,0,0,0,164.13,94Z"/><path class="cls-1" d="M190.75,107H173.13V81h5.15v21.14h12.47Z"/><path class="cls-1" d="M198.74,107h-5.05V81h5.05Z"/><path class="cls-1" d="M226.11,81,216.23,107h-4.62L201.51,81h5.6l6.78,18.32L220.57,81Z"/><path class="cls-1" d="M246.08,107h-17.2V81h17.2v4.17H233.83v6.22h12.09v4.07H233.83v7.17h12.25Z"/><path class="cls-1" d="M255,107h-5V81h5Z"/><path class="cls-1" d="M279.51,107H274l-1.85-5.93a9.32,9.32,0,0,0-.74-1.79,5.52,5.52,0,0,0-1.05-1.4,4.29,4.29,0,0,0-1.48-.91,5.68,5.68,0,0,0-2-.33h-1.89V107h-5V81l10.28,0a8.43,8.43,0,0,1,3.08.57,7.44,7.44,0,0,1,2.48,1.59,7.24,7.24,0,0,1,1.62,2.37,7.5,7.5,0,0,1,.59,3,6.87,6.87,0,0,1-.36,2.21,7.51,7.51,0,0,1-2.54,3.6,6.32,6.32,0,0,1-2,1.06,5.11,5.11,0,0,1,2,1.32,6.46,6.46,0,0,1,1.23,2.07q.22.56.42,1.11c.13.37.27.75.41,1.16l.45,1.3c.16.47.34,1,.53,1.55s.46,1.33.67,1.84A9.43,9.43,0,0,0,279.51,107Zm-6.58-18.21a4.07,4.07,0,0,0-.34-1.66,4.22,4.22,0,0,0-.93-1.31,4.28,4.28,0,0,0-1.39-.86,4.6,4.6,0,0,0-1.71-.31h-3.65v8.11h3.65a5,5,0,0,0,1.71-.28,4.13,4.13,0,0,0,1.39-.79,3.9,3.9,0,0,0,.93-1.26A3.94,3.94,0,0,0,272.93,88.82Z"/><path class="cls-1" d="M308.93,107h-5.54L301,101.82H288.34L285.9,107h-5.54L292.67,81h3.94ZM299,97.61l-4.33-9.38-4.4,9.38Z"/><path class="cls-1" d="M124.37,32.84,69.86,1.37a10.22,10.22,0,0,0-10.23,0L5.12,32.84A10.24,10.24,0,0,0,0,41.71v62.94a10.21,10.21,0,0,0,5.12,8.86L59.63,145a10.22,10.22,0,0,0,10.23,0l54.51-31.47a10.21,10.21,0,0,0,5.12-8.86V41.71A10.24,10.24,0,0,0,124.37,32.84ZM11.58,108.49a8.8,8.8,0,0,1-3.1-12l8.31-14.1,25.5,44.17ZM90,89.84A28.81,28.81,0,0,1,79.6,98a27,27,0,0,1-5.86,1.94,29,29,0,0,1-6,.63,28.67,28.67,0,0,1-11-2.11,28.12,28.12,0,0,1-9-5.8,27.67,27.67,0,0,1-6.06-8.69,27,27,0,0,1,0-21.45,27.26,27.26,0,0,1,6.07-8.66,29.09,29.09,0,0,1,9-5.83,28.32,28.32,0,0,1,11-2.14,27.25,27.25,0,0,1,12.34,2.77A29.1,29.1,0,0,1,89.58,56L82.67,63A17.76,17.76,0,0,0,76,57.27a18.86,18.86,0,0,0-8.22-1.75,18,18,0,0,0-7,1.38A18.5,18.5,0,0,0,55,60.69a18,18,0,0,0-3.89,5.61,16.64,16.64,0,0,0-1.41,6.81A16.88,16.88,0,0,0,51.13,80,18.45,18.45,0,0,0,55,85.63a18.08,18.08,0,0,0,12.79,5.2,17.14,17.14,0,0,0,6.7-1.31A21,21,0,0,0,80.16,86V81H69.35V72.26H90ZM121.2,49.66l-8.31,14.11L87.4,19.61l30.7,18.07A8.77,8.77,0,0,1,121.2,49.66Z"/></g></g></svg>