<svg xmlns="http://www.w3.org/2000/svg" viewBox="0 0 364.04 171.85"><defs><style>.cls-1{fill:#252628;}.cls-2{fill:#6cc;}.cls-3{fill:#fff;}</style></defs><title>Ativo 18</title><g id="Camada_2" data-name="Camada 2"><g id="Camada_1-2" data-name="Camada 1"><path class="cls-1" d="M195.52,72.35a16.63,16.63,0,0,1-6,4.7,15.78,15.78,0,0,1-3.4,1.13,17.09,17.09,0,0,1-3.46.36,16.6,16.6,0,0,1-6.39-1.22A16.41,16.41,0,0,1,171,74a16,16,0,0,1-3.52-5,15.66,15.66,0,0,1,0-12.45,15.91,15.91,0,0,1,3.52-5A17,17,0,0,1,176.24,48a16.61,16.61,0,0,1,6.39-1.24,15.93,15.93,0,0,1,7.17,1.61,17.12,17.12,0,0,1,5.49,4.28l-4,4.1a10.31,10.31,0,0,0-3.86-3.35,10.94,10.94,0,0,0-4.77-1,10.37,10.37,0,0,0-4.09.81,10.55,10.55,0,0,0-3.34,2.2A10.27,10.27,0,0,0,173,58.67a10.07,10.07,0,0,0,0,8,10.5,10.5,0,0,0,9.68,6.29,10,10,0,0,0,3.9-.76,12.11,12.11,0,0,0,3.28-2V67.18h-6.28V62.13h12Z"/><path class="cls-1" d="M226.93,47.36V64a17.29,17.29,0,0,1-.92,5.7,13.59,13.59,0,0,1-2.66,4.61,12.39,12.39,0,0,1-4.25,3.1,13.8,13.8,0,0,1-5.72,1.13,13.94,13.94,0,0,1-5.66-1.11,12.8,12.8,0,0,1-4.3-3,13.45,13.45,0,0,1-2.74-4.56,16.49,16.49,0,0,1-1-5.64V47.36h5.93V64.2a10.86,10.86,0,0,0,.49,3.31,8,8,0,0,0,1.46,2.69A6.59,6.59,0,0,0,210,72a7.62,7.62,0,0,0,3.27.67,8.41,8.41,0,0,0,3.39-.63A6.46,6.46,0,0,0,219,70.3a7.79,7.79,0,0,0,1.41-2.66,11.2,11.2,0,0,0,.48-3.37V47.36Z"/><path class="cls-1" d="M252.33,69.94a7.42,7.42,0,0,1-.75,3.27,8.55,8.55,0,0,1-2.08,2.73,10.26,10.26,0,0,1-3.18,1.9,11.18,11.18,0,0,1-4,.7,25.74,25.74,0,0,1-3.58-.22,16,16,0,0,1-3-.73A14.32,14.32,0,0,1,233,76.31a27.34,27.34,0,0,1-2.66-1.9l4.21-4.24a11.94,11.94,0,0,0,3.6,2.16A11.21,11.21,0,0,0,242,73a4.9,4.9,0,0,0,1.59-.25,4.32,4.32,0,0,0,1.3-.67,3.31,3.31,0,0,0,.88-1,2.53,2.53,0,0,0,.33-1.27,3.05,3.05,0,0,0-.27-1.3,3.21,3.21,0,0,0-1-1.11A10.24,10.24,0,0,0,243,66.28c-.82-.37-1.86-.78-3.14-1.24a28.34,28.34,0,0,1-3.23-1.4,11.17,11.17,0,0,1-2.72-1.89,8.67,8.67,0,0,1-1.87-2.6,8.19,8.19,0,0,1-.71-3.52,8.32,8.32,0,0,1,.78-3.6,8.6,8.6,0,0,1,2.15-2.81,10,10,0,0,1,3.17-1.82,11.64,11.64,0,0,1,3.92-.65,16.75,16.75,0,0,1,5.93.92,12.94,12.94,0,0,1,4.29,2.68l-4.13,4.17a8.16,8.16,0,0,0-2.57-1.7,8.46,8.46,0,0,0-3.33-.6,4.75,4.75,0,0,0-1.62.27,4.25,4.25,0,0,0-1.28.71,3.38,3.38,0,0,0-.86,1,2.54,2.54,0,0,0-.33,1.25,2.72,2.72,0,0,0,.31,1.31,3.5,3.5,0,0,0,1,1.15,10.3,10.3,0,0,0,1.93,1.11c.8.37,1.81.77,3,1.21A22.47,22.47,0,0,1,247.63,62a11.29,11.29,0,0,1,2.67,2.1,7.55,7.55,0,0,1,1.53,2.58A9.93,9.93,0,0,1,252.33,69.94Z"/><path class="cls-1" d="M277.54,52.68h-8.45V78h-6V52.68h-8.45V47.4h22.91Z"/><path class="cls-1" d="M307.27,78h-6.5l-2.84-6.12H283.09L280.22,78h-6.5l14.46-30.61h4.63ZM295.6,66.91l-5.09-11-5.16,11Z"/><path class="cls-1" d="M331.18,47.36,319.59,78h-5.43L302.3,47.36h6.58l7.95,21.51,7.85-21.51Z"/><path class="cls-1" d="M364,62.67a15.13,15.13,0,0,1-1.28,6.2,15.8,15.8,0,0,1-3.49,5,16.9,16.9,0,0,1-5.16,3.38,16.5,16.5,0,0,1-12.55,0,16.76,16.76,0,0,1-5.18-3.38,16,16,0,0,1-3.5-5,15.8,15.8,0,0,1,0-12.46,15.88,15.88,0,0,1,3.5-5,16.49,16.49,0,0,1,22.89,0,16,16,0,0,1,3.49,5.05A15.09,15.09,0,0,1,364,62.67Zm-5.93,0a9.8,9.8,0,0,0-.8-4,10.43,10.43,0,0,0-2.2-3.25,10.8,10.8,0,0,0-3.28-2.22,10.08,10.08,0,0,0-8,0,10.68,10.68,0,0,0-3.28,2.22,10.26,10.26,0,0,0-2.2,3.25,10,10,0,0,0,0,7.9,10.24,10.24,0,0,0,2.2,3.27,10.68,10.68,0,0,0,3.28,2.22,10.19,10.19,0,0,0,8,0,10.8,10.8,0,0,0,3.28-2.22,10.4,10.4,0,0,0,2.2-3.27A9.81,9.81,0,0,0,358.11,62.67Z"/><path class="cls-1" d="M198.66,110.37a15.29,15.29,0,0,1-1.28,6.2,16,16,0,0,1-3.5,5.05,16.9,16.9,0,0,1-5.16,3.38,16.5,16.5,0,0,1-12.55,0,16.76,16.76,0,0,1-5.18-3.38,16,16,0,0,1-3.5-5,15.8,15.8,0,0,1,0-12.46,15.88,15.88,0,0,1,3.5-5,16.36,16.36,0,0,1,26.39,5.07A15.25,15.25,0,0,1,198.66,110.37Zm-5.93,0a9.81,9.81,0,0,0-.81-4,10.43,10.43,0,0,0-2.2-3.25,10.8,10.8,0,0,0-3.28-2.22,10.08,10.08,0,0,0-8,0,10.68,10.68,0,0,0-3.28,2.22,10.26,10.26,0,0,0-2.2,3.25,10,10,0,0,0,0,7.9,10.24,10.24,0,0,0,2.2,3.27,10.68,10.68,0,0,0,3.28,2.22,10.19,10.19,0,0,0,8,0,10.8,10.8,0,0,0,3.28-2.22,10.4,10.4,0,0,0,2.2-3.27A9.82,9.82,0,0,0,192.73,110.37Z"/><path class="cls-1" d="M224,125.67H203.29V95.1h6v24.83H224Z"/><path class="cls-1" d="M233.36,125.67h-5.93V95.1h5.93Z"/><path class="cls-1" d="M265.49,95.06,253.9,125.67h-5.43L236.61,95.06h6.58l7.95,21.51L259,95.06Z"/><path class="cls-1" d="M288.94,125.67h-20.2V95.1h20.2V100H274.56v7.31h14.19v4.78H274.56v8.42h14.38Z"/><path class="cls-1" d="M299.46,125.67h-5.93V95.1h5.93Z"/><path class="cls-1" d="M328.2,125.67h-6.53l-2.18-7a11.49,11.49,0,0,0-.86-2.11,6.62,6.62,0,0,0-1.24-1.64,5,5,0,0,0-1.73-1.07,6.66,6.66,0,0,0-2.39-.38h-2.21v12.16H305.2V95.1l12.07,0a9.84,9.84,0,0,1,3.63.67,8.81,8.81,0,0,1,2.9,1.86,8.46,8.46,0,0,1,1.91,2.79,8.72,8.72,0,0,1,.69,3.48,8.24,8.24,0,0,1-.42,2.61,8.66,8.66,0,0,1-1.18,2.33,9.22,9.22,0,0,1-1.8,1.89,7.69,7.69,0,0,1-2.3,1.25,5.66,5.66,0,0,1,2.35,1.55,7.51,7.51,0,0,1,1.45,2.43c.18.43.34.86.49,1.3l.48,1.35c.16.48.34,1,.53,1.53l.63,1.82q.42,1.26.78,2.16A9.81,9.81,0,0,0,328.2,125.67Zm-7.73-21.39a4.79,4.79,0,0,0-.4-2A5.21,5.21,0,0,0,319,100.8a5,5,0,0,0-1.63-1,5.6,5.6,0,0,0-2-.36h-4.28V109h4.28a6.32,6.32,0,0,0,2-.32,4.87,4.87,0,0,0,1.63-.94,4.42,4.42,0,0,0,1.49-3.41Z"/><path class="cls-1" d="M362.74,125.67h-6.5l-2.83-6.12H338.56l-2.87,6.12h-6.5l14.46-30.61h4.63Zm-11.67-11.06-5.09-11-5.16,11Z"/><path class="cls-1" d="M0,49v73.9a12,12,0,0,0,6,10.41l64,36.95a12,12,0,0,0,12,0l64-36.95a12,12,0,0,0,6-10.41V49a12,12,0,0,0-6-10.41L82,1.61a12,12,0,0,0-12,0l-64,37A12,12,0,0,0,0,49Z"/><path class="cls-2" d="M19.71,96.75l29.94,51.86-36-21.22A10.31,10.31,0,0,1,10,113.32Z"/><path class="cls-2" d="M142.31,58.31l-9.75,16.56L102.62,23l36,21.22A10.3,10.3,0,0,1,142.31,58.31Z"/><path class="cls-3" d="M105.65,105.49a33,33,0,0,1-5.73,5.61A33.74,33.74,0,0,1,93.47,115a32.37,32.37,0,0,1-6.89,2.28,34.2,34.2,0,0,1-7,.74,33.71,33.71,0,0,1-12.92-2.48,33,33,0,0,1-10.52-6.81A32.5,32.5,0,0,1,49,98.53a31.61,31.61,0,0,1,0-25.18A31.79,31.79,0,0,1,56.1,63.18a34.16,34.16,0,0,1,10.56-6.85,33.35,33.35,0,0,1,12.92-2.51,32,32,0,0,1,14.5,3.25,34.44,34.44,0,0,1,11.11,8.66L97.08,74a21,21,0,0,0-7.8-6.77,22.41,22.41,0,0,0-9.66-2,21,21,0,0,0-8.26,1.63,21.45,21.45,0,0,0-6.76,4.44A21.11,21.11,0,0,0,60,77.84a20.32,20.32,0,0,0,0,16.09A21.37,21.37,0,0,0,71.35,105a21.13,21.13,0,0,0,8.26,1.62,20.23,20.23,0,0,0,7.87-1.54,24.23,24.23,0,0,0,6.64-4.1v-6H81.44V84.84h24.21Z"/></g></g></svg>