<svg xmlns="http://www.w3.org/2000/svg" viewBox="0 0 174.94 199.99"><defs><style>.cls-1{fill:#252628;}.cls-2{fill:#69b7af;}.cls-3{fill:#fff;}</style></defs><title>Ativo 10</title><g id="Camada_2" data-name="Camada 2"><g id="Camada_1-2" data-name="Camada 1"><path class="cls-1" d="M174.94,54.15a8.12,8.12,0,0,0-4.06-7L91.53,1.31a8,8,0,0,0-2.81-1,4.87,4.87,0,0,0-4.17.31L2.93,47.76A4.85,4.85,0,0,0,.6,51.1a8.09,8.09,0,0,0-.6,3v91.63a8.12,8.12,0,0,0,4.06,7l79.35,45.81a8,8,0,0,0,2.65.95,4.87,4.87,0,0,0,4.39-.22l81.62-47.12a4.89,4.89,0,0,0,2.41-3.8,8.11,8.11,0,0,0,.46-2.65Z"/><path class="cls-2" d="M54.63,171.27,11.1,146.13a4.15,4.15,0,0,1-1.51-5.66l13.63-23.61Z"/><path class="cls-2" d="M165.62,60.39,152.48,83.17l-30.31-52.5,42,24.25A4,4,0,0,1,165.62,60.39Z"/><path class="cls-3" d="M125.16,127.5A47.31,47.31,0,0,1,108,140.89a44.17,44.17,0,0,1-9.68,3.21,48.15,48.15,0,0,1-9.85,1,47.28,47.28,0,0,1-18.18-3.49,46.35,46.35,0,0,1-14.8-9.57,45.87,45.87,0,0,1-10-14.37,44.53,44.53,0,0,1,0-35.43A44.68,44.68,0,0,1,55.44,68,47.9,47.9,0,0,1,70.3,58.33,46.94,46.94,0,0,1,88.48,54.8a45.15,45.15,0,0,1,20.4,4.57A48.3,48.3,0,0,1,124.5,71.56L113.09,83.21a29.54,29.54,0,0,0-11-9.53A31.38,31.38,0,0,0,88.54,70.8a29.74,29.74,0,0,0-11.63,2.28,30.36,30.36,0,0,0-9.51,6.26A29.41,29.41,0,0,0,61,88.59a28.55,28.55,0,0,0,0,22.64A29.94,29.94,0,0,0,76.9,126.85a29.52,29.52,0,0,0,11.62,2.29A28.51,28.51,0,0,0,99.6,127a34.08,34.08,0,0,0,9.34-5.77v-8.38H91.09V98.44h34.07Z"/></g></g></svg>