<svg id="logo" xmlns="http://www.w3.org/2000/svg" viewBox="0 0 307.03 137.66">
    <style>
        .cls-1 {
            fill: #fcfcfc;
        }

        .cls-2 {
            fill: #fff;
            background: black;
        }

        .cls-3 {
            fill: #6cc;
        }

        #logo:hover #arrow-bottom {
            transform-origin: 61px 68px;
            animation: rotateArrow 500ms linear 1 normal forwards
        }

        #logo:hover #arrow-top {
            transform-origin: 61px 68px;
            animation: rotateArrow 500ms linear 1 normal forwards
        }

        @keyframes rotateArrow {
            0% {
                transform: rotate(0deg);
                animation-timing-function: cubic-bezier(0.42, 0, 0.58, 1)
            }

            100% {
                transform: rotate(360deg)
            }
        }
    </style>

    <title>Ativo 20</title>
    <g id="Camada_2" data-name="Camada 2">
        <g id="Camada_1" data-name="Camada 1">
            <path class="cls-1"
                d="M167.49,55.69A14,14,0,0,1,165.15,58a13.75,13.75,0,0,1-2.65,1.6,12.8,12.8,0,0,1-2.82.94,14.15,14.15,0,0,1-8.15-.71A13.57,13.57,0,0,1,147.22,57a13.28,13.28,0,0,1-2.92-4.18,12.57,12.57,0,0,1-1.07-5.2,12.41,12.41,0,0,1,1.06-5.11,12.9,12.9,0,0,1,2.91-4.17,13.91,13.91,0,0,1,4.33-2.8,13.52,13.52,0,0,1,5.29-1,13.15,13.15,0,0,1,5.94,1.33,14.11,14.11,0,0,1,4.54,3.54L164,42.79A8.67,8.67,0,0,0,160.79,40a9.12,9.12,0,0,0-4-.84,8.5,8.5,0,0,0-3.38.67,8.71,8.71,0,0,0-2.77,1.82,8.53,8.53,0,0,0-1.86,2.69,8.32,8.32,0,0,0,0,6.59,8.62,8.62,0,0,0,1.86,2.71,8.77,8.77,0,0,0,2.77,1.84,8.67,8.67,0,0,0,3.38.66,8.29,8.29,0,0,0,3.22-.63,9.84,9.84,0,0,0,2.72-1.68V51.41h-5.19V47.23h9.91Z" />
            <path class="cls-1"
                d="M193.5,35V48.75a14.46,14.46,0,0,1-.76,4.72,11.38,11.38,0,0,1-2.2,3.82A10.32,10.32,0,0,1,187,59.85a11.3,11.3,0,0,1-4.74.94,11.53,11.53,0,0,1-4.68-.92A10.41,10.41,0,0,1,174,57.35a11,11,0,0,1-2.26-3.77,13.47,13.47,0,0,1-.79-4.67V35h4.91V48.94a8.78,8.78,0,0,0,.41,2.74,6.39,6.39,0,0,0,1.2,2.23,5.62,5.62,0,0,0,2,1.51,6.34,6.34,0,0,0,2.71.55,6.86,6.86,0,0,0,2.8-.52A5.27,5.27,0,0,0,187,54a6.53,6.53,0,0,0,1.17-2.2,9.4,9.4,0,0,0,.4-2.79V35Z" />
            <path class="cls-1"
                d="M214.53,53.69a6.08,6.08,0,0,1-.62,2.71,7,7,0,0,1-1.72,2.26,8.51,8.51,0,0,1-2.63,1.57,9.26,9.26,0,0,1-3.36.59,20.36,20.36,0,0,1-3-.19,13.32,13.32,0,0,1-2.47-.6A12.54,12.54,0,0,1,198.55,59a22.26,22.26,0,0,1-2.2-1.57l3.48-3.52a10,10,0,0,0,3,1.79,9.29,9.29,0,0,0,3.17.52,4,4,0,0,0,1.31-.2,3.56,3.56,0,0,0,1.08-.56,2.59,2.59,0,0,0,.73-.82,2.11,2.11,0,0,0,.27-1,2.59,2.59,0,0,0-.22-1.07,2.74,2.74,0,0,0-.79-.92,7.47,7.47,0,0,0-1.59-.9c-.67-.31-1.54-.65-2.6-1a24.71,24.71,0,0,1-2.67-1.16,9.22,9.22,0,0,1-2.25-1.57,7.08,7.08,0,0,1-1.55-2.15,6.65,6.65,0,0,1-.59-2.92,6.83,6.83,0,0,1,.65-3,6.9,6.9,0,0,1,1.77-2.33A8.22,8.22,0,0,1,202.16,35a9.55,9.55,0,0,1,3.25-.54,14,14,0,0,1,4.91.76,10.85,10.85,0,0,1,3.55,2.22l-3.42,3.46a6.7,6.7,0,0,0-2.13-1.41,7,7,0,0,0-2.75-.5,3.9,3.9,0,0,0-1.35.23,3.49,3.49,0,0,0-1.06.58,2.92,2.92,0,0,0-.71.86,2.11,2.11,0,0,0-.27,1,2.33,2.33,0,0,0,.25,1.09,3,3,0,0,0,.86.95,8.39,8.39,0,0,0,1.6.92c.66.31,1.49.64,2.48,1a19.44,19.44,0,0,1,3.27,1.45,9.13,9.13,0,0,1,2.21,1.75A6.1,6.1,0,0,1,214.12,51,8.33,8.33,0,0,1,214.53,53.69Z" />
            <path class="cls-1" d="M235.41,39.4h-7V60.34h-5V39.4h-7V35h19Z" />
            <path class="cls-1"
                d="M260,60.34h-5.38l-2.35-5.06H240l-2.38,5.06h-5.38l12-25.34h3.84Zm-9.66-9.15-4.21-9.12-4.28,9.12Z" />
            <path class="cls-1" d="M279.82,35l-9.6,25.34h-4.5L255.9,35h5.45l6.59,17.8L274.43,35Z" />
            <path class="cls-1"
                d="M307,47.67A12.5,12.5,0,0,1,306,52.8,13.24,13.24,0,0,1,303.08,57a14,14,0,0,1-4.28,2.8,13.09,13.09,0,0,1-5.18,1,13.27,13.27,0,0,1-5.21-1,14,14,0,0,1-4.29-2.8,13.38,13.38,0,0,1-2.89-4.17,13.06,13.06,0,0,1,0-10.31,13.09,13.09,0,0,1,2.89-4.18,13.82,13.82,0,0,1,4.29-2.79,13.44,13.44,0,0,1,5.21-1,13.25,13.25,0,0,1,5.18,1,13.62,13.62,0,0,1,4.28,2.8A13.47,13.47,0,0,1,306,42.53,12.48,12.48,0,0,1,307,47.67Zm-4.91,0a8.09,8.09,0,0,0-.67-3.28,8.58,8.58,0,0,0-1.82-2.69,9,9,0,0,0-2.71-1.84,8.23,8.23,0,0,0-3.3-.68,8.31,8.31,0,0,0-3.34.68,9,9,0,0,0-2.71,1.84,8.78,8.78,0,0,0-1.83,2.69,8.46,8.46,0,0,0,0,6.55,8.68,8.68,0,0,0,4.54,4.54,8.15,8.15,0,0,0,3.34.68,8.06,8.06,0,0,0,3.3-.68,8.78,8.78,0,0,0,2.71-1.84,8.51,8.51,0,0,0,1.82-2.7A8.14,8.14,0,0,0,302.12,47.67Z" />
            <path class="cls-1"
                d="M170.09,87.17A12.53,12.53,0,0,1,169,92.3a13,13,0,0,1-2.9,4.18,13.84,13.84,0,0,1-4.27,2.81,13.74,13.74,0,0,1-10.39,0,13.82,13.82,0,0,1-4.29-2.81,13.06,13.06,0,0,1-2.89-4.16,13.06,13.06,0,0,1,0-10.31,13.08,13.08,0,0,1,2.89-4.19A13.55,13.55,0,0,1,169,82,12.53,12.53,0,0,1,170.09,87.17Zm-4.91,0a8.05,8.05,0,0,0-.67-3.28,8.58,8.58,0,0,0-1.82-2.69A8.83,8.83,0,0,0,160,79.36a8.16,8.16,0,0,0-3.3-.68,8.3,8.3,0,0,0-3.33.68,8.67,8.67,0,0,0-2.71,1.84,8.78,8.78,0,0,0-1.83,2.69,8.43,8.43,0,0,0,0,6.54,8.64,8.64,0,0,0,1.83,2.71A8.84,8.84,0,0,0,153.34,95a8.3,8.3,0,0,0,3.33.68A8.16,8.16,0,0,0,160,95a9,9,0,0,0,2.72-1.84,8.45,8.45,0,0,0,1.82-2.71A8.06,8.06,0,0,0,165.18,87.17Z" />
            <path class="cls-1" d="M191.06,99.84H173.92V74.53h5V95.09h12.13Z" />
            <path class="cls-1" d="M198.82,99.84h-4.91V74.53h4.91Z" />
            <path class="cls-1" d="M225.43,74.5l-9.6,25.34h-4.5L201.51,74.5H207l6.59,17.8L220,74.5Z" />
            <path class="cls-1" d="M244.85,99.84H228.12V74.53h16.73v4H232.94v6h11.75v4H232.94v7h11.91Z" />
            <path class="cls-1" d="M253.56,99.84h-4.91V74.53h4.91Z" />
            <path class="cls-1"
                d="M277.35,99.84h-5.41l-1.8-5.77a9.74,9.74,0,0,0-.71-1.74,5.47,5.47,0,0,0-1-1.36,4.22,4.22,0,0,0-1.44-.89,5.54,5.54,0,0,0-2-.31h-1.83V99.84h-4.85V74.53l10,0a8.05,8.05,0,0,1,3,.55,7.32,7.32,0,0,1,2.4,1.54,7,7,0,0,1,1.58,2.31,7.26,7.26,0,0,1,.57,2.88,6.88,6.88,0,0,1-.35,2.16,7.29,7.29,0,0,1-1,1.93,7.69,7.69,0,0,1-1.5,1.57,6.26,6.26,0,0,1-1.9,1,4.71,4.71,0,0,1,1.95,1.28,6.47,6.47,0,0,1,1.2,2c.14.36.28.72.41,1.08s.25.73.39,1.12.28.82.44,1.27.33,1,.52,1.51.45,1.29.65,1.78A9,9,0,0,0,277.35,99.84ZM271,82.13a3.83,3.83,0,0,0-.33-1.61,4.07,4.07,0,0,0-2.25-2.11,4.57,4.57,0,0,0-1.66-.3h-3.55V86h3.55a5,5,0,0,0,1.66-.27,3.88,3.88,0,0,0,1.34-.78,3.68,3.68,0,0,0,.91-1.22A3.75,3.75,0,0,0,271,82.13Z" />
            <path class="cls-1"
                d="M306,99.84h-5.38l-2.35-5.07H285.93l-2.37,5.07h-5.39l12-25.34H294Zm-9.66-9.16-4.21-9.12-4.28,9.12Z" />
            <path class="cls-2"
                d="M62,6a12,12,0,0,1,6,1.61L112,33a12,12,0,0,1,6,10.42v50.8a12,12,0,0,1-6,10.41L68,130.05a12,12,0,0,1-12,0L12,104.64A12,12,0,0,1,6,94.23V43.43A12,12,0,0,1,12,33L56,7.61A12.06,12.06,0,0,1,62,6m0-6a18,18,0,0,0-9,2.41L9,27.82A18.07,18.07,0,0,0,0,43.43v50.8a18.07,18.07,0,0,0,9,15.61l44,25.4a18,18,0,0,0,18,0l44-25.4a18.07,18.07,0,0,0,9-15.61V43.43a18.07,18.07,0,0,0-9-15.61L71,2.41A18,18,0,0,0,62,0Z" />
            <g id="arrow-bottom">
                <path class="cls-3" d="M20.53,76.81,42.59,115,16,99.38A7.6,7.6,0,0,1,13.34,89Z" />
            </g>
            <g id="arrow-top">
                <path class="cls-3" d="M110.87,48.48l-7.19,12.2L81.63,22.48l26.56,15.63A7.6,7.6,0,0,1,110.87,48.48Z" />
            </g>
            <path class="cls-2"
                d="M83.85,83.25a24.12,24.12,0,0,1-4.21,4.13,25.27,25.27,0,0,1-4.76,2.88,23.83,23.83,0,0,1-5.08,1.68,25.25,25.25,0,0,1-14.68-1.28,24.34,24.34,0,0,1-7.75-5,24,24,0,0,1-5.24-7.53,23.31,23.31,0,0,1,0-18.55,23.43,23.43,0,0,1,5.24-7.5,25.28,25.28,0,0,1,7.78-5,24.62,24.62,0,0,1,9.52-1.85,23.62,23.62,0,0,1,10.69,2.4A25.18,25.18,0,0,1,83.51,54l-6,6.1a15.55,15.55,0,0,0-5.75-5,16.53,16.53,0,0,0-7.11-1.51,15.46,15.46,0,0,0-6.09,1.2,15.8,15.8,0,0,0-5,3.28,15.14,15.14,0,0,0-3.36,4.84,14.91,14.91,0,0,0,0,11.86,15.65,15.65,0,0,0,14.42,9.38A14.92,14.92,0,0,0,70.47,83a17.76,17.76,0,0,0,4.89-3V75.56H66V68H83.85Z" />
        </g>
    </g>
</svg>