<svg id="eUn8lfXrgtN1" xmlns="http://www.w3.org/2000/svg" xmlns:xlink="http://www.w3.org/1999/xlink"
    viewBox="0 0 364.04 171.85" shape-rendering="geometricPrecision" text-rendering="geometricPrecision">
    <style>
        
        #eUn8lfXrgtN1:hover #eUn8lfXrgtN20_tr {
            transform-origin: 73px 88px;    
            animation: rotateArrow 500ms linear 1 normal forwards
        }

        #eUn8lfXrgtN1:hover #eUn8lfXrgtN21_tr {
            transform-origin: 80px 88px;    
            animation: rotateArrow 500ms linear 1 normal forwards
        }

        @keyframes rotateArrow {
            0% {
                transform: rotate(0deg);
                animation-timing-function: cubic-bezier(0.42, 0, 0.58, 1)
            }

            100% {
                transform: rotate(360deg)
            }
        }
        
    </style>
    <g transform="translate(.039494 0)">
        <g id="escudo">
            <path
                d="M195.52,72.35c-1.609181,2.01003-3.663119,3.618948-6,4.7-1.086758.504525-2.227442.883634-3.4,1.13-1.138086.237374-2.297424.357999-3.46.36-2.189617.018764-4.361312-.395863-6.39-1.22-1.952507-.760081-3.741391-1.887044-5.27-3.32-1.483862-1.424875-2.679017-3.122539-3.52-5-1.720553-3.971668-1.720553-8.478332,0-12.45.839004-1.878586,2.034412-3.576608,3.52-5c1.50904-1.500919,3.286507-2.705119,5.24-3.55c2.027371-.83073,4.199064-1.252154,6.39-1.24c2.482813-.029456,4.938136.521878,7.17,1.61c2.1038,1.035635,3.972423,2.492411,5.49,4.28l-4,4.1c-.985103-1.422942-2.312557-2.575007-3.86-3.35-1.494579-.687765-3.125034-1.02958-4.77-1-1.404112-.009687-2.795566.265882-4.09.81-1.243422.513666-2.377123,1.260415-3.34,2.2-.947261.932145-1.704598,2.039283-2.23,3.26-1.104697,2.552258-1.104697,5.447742,0,8c1.681222,3.84146,5.486823,6.314315,9.68,6.29c1.337749.010085,2.663923-.248349,3.9-.76c1.192786-.487896,2.300049-1.163056,3.28-2v-3.02h-6.28v-5.05h12Z"
                fill="#252628" />
            <path
                d="M226.93,47.36v16.64c.014983,1.938135-.296019,3.864996-.92,5.7-.574149,1.69697-1.478149,3.263678-2.66,4.61-1.178444,1.325628-2.627772,2.382785-4.25,3.1-1.804426.779751-3.754614,1.165016-5.72,1.13-1.943418.028628-3.871347-.349464-5.66-1.11-1.624981-.692584-3.089023-1.714009-4.3-3-1.207825-1.322413-2.139378-2.872733-2.74-4.56-.6598-1.807268-.998238-3.716059-1-5.64v-16.87h5.93v16.84c-.008642,1.122022.156653,2.238605.49,3.31.309008.982273.804745,1.895653,1.46,2.69.66237.781497,1.497815,1.397809,2.44,1.8c1.027088.462259,2.143879.691082,3.27.67c1.161383.026386,2.315639-.188122,3.39-.63.902421-.394074,1.702811-.989235,2.34-1.74.638494-.786547,1.117436-1.690084,1.41-2.66.33077-1.092316.492639-2.228772.48-3.37v-16.91Z"
                fill="#252628" />
            <path
                d="M252.33,69.94c.002929,1.132964-.253629,2.251554-.75,3.27-.501685,1.041234-1.209272,1.969941-2.08,2.73-.935941.821029-2.0135,1.464854-3.18,1.9-1.279423.475553-2.635115.712799-4,.7-1.196997.01-2.393234-.063512-3.58-.22-1.021195-.146053-2.025871-.390524-3-.73-.955953-.328757-1.874407-.757816-2.74-1.28-.923769-.579712-1.812023-1.214179-2.66-1.9l4.21-4.24c1.063006.926974,2.281844,1.658276,3.6,2.16c1.234207.447024,2.537337.673803,3.85.67.540157.004878,1.077403-.079595,1.59-.25.468263-.147827.907894-.374406,1.3-.67.358068-.270255.657463-.610477.88-1c.219776-.386944.333605-.825012.33-1.27.006557-.447903-.085627-.891752-.27-1.3-.241391-.443501-.584004-.823801-1-1.11-.569098-.436385-1.182464-.811778-1.83-1.12-.82-.37-1.86-.78-3.14-1.24-1.104639-.39928-2.183386-.866849-3.23-1.4-.995553-.491328-1.912295-1.128329-2.72-1.89-.779384-.74302-1.413535-1.624727-1.87-2.6-.494143-1.106365-.736637-2.308591-.71-3.52-.012241-1.243206.25429-2.473351.78-3.6.514159-1.075559,1.246318-2.032475,2.15-2.81.935873-.796277,2.010488-1.413248,3.17-1.82c1.259754-.439741,2.585736-.65961,3.92-.65c2.015932-.052806,4.024832.258861,5.93.92c1.59238.602416,3.050229,1.513147,4.29,2.68l-4.13,4.17c-.740929-.724739-1.613144-1.301691-2.57-1.7-1.058271-.422199-2.190922-.626281-3.33-.6-.551581-.004745-1.099773.08662-1.62.27-.464517.160859-.897606.401088-1.28.71-.349553.273625-.641782.613427-.86,1-.215973.38123-.329655.811845-.33,1.25-.008063.455744.098535.906206.31,1.31.244818.452131.586244.844771,1,1.15.601337.438648,1.24845.810822,1.93,1.11.8.37,1.81.77,3,1.21c1.367124.46211,2.686552,1.054848,3.94,1.77.990816.561338,1.891003,1.26935,2.67,2.1.677422.749016,1.197688,1.626327,1.53,2.58.347224,1.051198.516221,2.153059.5,3.26Z"
                fill="#252628" />
            <path d="M277.54,52.68h-8.45v25.32h-6v-25.32h-8.45v-5.28h22.91Z" fill="#252628" />
            <path d="M307.27,78h-6.5l-2.84-6.12h-14.84L280.22,78h-6.5l14.46-30.61h4.63ZM295.6,66.91l-5.09-11-5.16,11Z"
                fill="#252628" />
            <path d="M331.18,47.36L319.59,78h-5.43L302.3,47.36h6.58l7.95,21.51l7.85-21.51Z" fill="#252628" />
            <path
                d="M364,62.67c.015316,2.133806-.420898,4.246719-1.28,6.2-.827647,1.877464-2.013051,3.57575-3.49,5-1.498078,1.433682-3.247208,2.579431-5.16,3.38-4.020035,1.653037-8.529965,1.653037-12.55,0-1.92141-.795541-3.677983-1.941722-5.18-3.38-1.476683-1.426651-2.664964-3.124196-3.5-5-1.706818-3.977978-1.706818-8.482022,0-12.46.832398-1.877295,2.021014-3.575317,3.5-5c6.387495-6.158025,16.502505-6.158025,22.89,0c1.478373,1.442299,2.663514,3.157189,3.49,5.05.861648,1.95599,1.297944,4.07271,1.28,6.21Zm-5.93,0c.016855-1.374687-.255716-2.73754-.8-4-.521072-1.212786-1.267619-2.315639-2.2-3.25-.947136-.935865-2.059165-1.688519-3.28-2.22-2.552506-1.103503-5.447494-1.103503-8,0-1.222184.529024-2.334643,1.281969-3.28,2.22-.935627.931679-1.682624,2.035197-2.2,3.25-1.084252,2.521726-1.084252,5.378274,0,7.9.514676,1.222171,1.261846,2.332737,2.2,3.27.945357.938031,2.057816,1.690976,3.28,2.22c2.555171,1.090545,5.444829,1.090545,8,0c1.220835-.531481,2.332864-1.284135,3.28-2.22.935051-.939815,1.68179-2.049741,2.2-3.27.54417-1.228743.830082-2.556188.84-3.9Z"
                fill="#252628" />
            <path
                d="M198.66,110.37c.010537,2.133332-.425474,4.245261-1.28,6.2-.829459,1.89364-2.018038,3.608589-3.5,5.05-1.498078,1.433682-3.247208,2.579431-5.16,3.38-4.020035,1.653037-8.529965,1.653037-12.55,0-1.92141-.795541-3.677983-1.941722-5.18-3.38-1.476683-1.426651-2.664964-3.124196-3.5-5-1.706818-3.977978-1.706818-8.482022,0-12.46.832398-1.877295,2.021014-3.575317,3.5-5c3.833055-3.745628,9.257617-5.376379,14.520664-4.365251s9.697138,4.535904,11.869336,9.435251c.847479,1.935872,1.283363,4.026753,1.28,6.14Zm-5.93,0c.013401-1.375374-.26257-2.738195-.81-4-.521072-1.212786-1.267619-2.315639-2.2-3.25-.947136-.935865-2.059165-1.688519-3.28-2.22-2.552506-1.103503-5.447494-1.103503-8,0-1.222184.529024-2.334643,1.281969-3.28,2.22-.935627.931679-1.682624,2.035197-2.2,3.25-1.084252,2.521726-1.084252,5.378274,0,7.9.514676,1.222171,1.261846,2.332737,2.2,3.27.945357.938031,2.057816,1.690976,3.28,2.22c2.555171,1.090545,5.444829,1.090545,8,0c1.220835-.531481,2.332864-1.284135,3.28-2.22.935051-.939815,1.68179-2.049741,2.2-3.27.533589-1.231015.809259-2.558316.81-3.9Z"
                fill="#252628" />
            <path d="M224,125.67h-20.71v-30.57h6v24.83h14.71Z" fill="#252628" />
            <path d="M233.36,125.67h-5.93v-30.57h5.93Z" fill="#252628" />
            <path d="M265.49,95.06L253.9,125.67h-5.43L236.61,95.06h6.58l7.95,21.51L259,95.06Z" fill="#252628" />
            <path d="M288.94,125.67h-20.2v-30.57h20.2v4.9h-14.38v7.31h14.19v4.78h-14.19v8.42h14.38Z" fill="#252628" />
            <path d="M299.46,125.67h-5.93v-30.57h5.93Z" fill="#252628" />
            <path
                d="M328.2,125.67h-6.53l-2.18-7c-.216049-.73009-.504132-1.436898-.86-2.11-.325402-.607908-.74378-1.161247-1.24-1.64-.497257-.471441-1.086107-.835644-1.73-1.07-.766775-.271559-1.576812-.400352-2.39-.38h-2.21v12.16h-5.86v-30.53h12.07c1.241431-.007654,2.473099.219678,3.63.67c1.079656.423104,2.065163,1.055188,2.9,1.86.817917.792003,1.467556,1.740952,1.91,2.79.466037,1.100462.700897,2.284973.69,3.48.00138.886934-.140445,1.768274-.42,2.61-.273281.831854-.671138,1.617453-1.18,2.33-.507343.712166-1.113414,1.348541-1.8,1.89-.689593.545053-1.467528.967844-2.3,1.25.901371.310508,1.709707.843665,2.35,1.55.632948.7108,1.125014,1.535436,1.45,2.43.18.43.34.86.49,1.3l.48,1.35c.16.48.34,1,.53,1.53l.63,1.82q.42,1.26.78,2.16c.21691.539043.481283,1.057749.79,1.55Zm-7.73-21.39c.011794-.687652-.124632-1.36978-.4-2-.266745-.552485-.628976-1.053514-1.07-1.48-.473936-.435098-1.02739-.774641-1.63-1-.639132-.240969-1.316957-.362977-2-.36h-4.28v9.56h4.28c.679535.001549,1.354872-.106505,2-.32.599274-.204392,1.15294-.523684,1.63-.94.974276-.862017,1.519343-2.109452,1.49-3.41Z"
                fill="#252628" />
            <path
                d="M362.74,125.67h-6.5l-2.83-6.12h-14.85l-2.87,6.12h-6.5l14.46-30.61h4.63Zm-11.67-11.06l-5.09-11-5.16,11Z"
                fill="#252628" />
            <path
                d="M0,49v73.9c-.006329,4.293508,2.281707,8.263249,6,10.41l64,36.95c3.712813,2.143594,8.287187,2.143594,12,0l64-36.95c3.718293-2.146751,6.006329-6.116492,6-10.41v-73.9c.006329-4.293508-2.281707-8.263249-6-10.41L82,1.61c-3.712813-2.143594-8.287187-2.143594-12,0l-64,37C2.2879,40.753182,0.000823,44.713636,0,49Z"
                fill="#252628" />
            <g id="eUn8lfXrgtN20_tr" transform="translate(76,85.918848) rotate(0)">
                <path d="M19.71,96.75l29.94,51.86-36-21.22c-4.878198-2.88874-6.508745-9.174164-3.65-14.07Z"
                    transform="translate(-76,-85.918848)" fill="#6cc" />
            </g>
            <g id="eUn8lfXrgtN21_tr" transform="translate(76,85.998379) rotate(0)">
                <path d="M142.31,58.31l-9.75,16.56L102.62,23l36,21.22c4.909398,2.872195,6.561366,9.180118,3.69,14.09Z"
                    transform="translate(-76,-85.934998)" fill="#6cc" />
            </g>
            <path
                d="M105.65,105.49c-1.674848,2.095976-3.599051,3.979882-5.73,5.61-1.997588,1.536825-4.161085,2.844986-6.45,3.9-2.203939,1.015871-4.515128,1.780676-6.89,2.28-2.301671.486771-4.647425.734751-7,.74-4.427746.029884-8.818004-.812828-12.92-2.48-3.909453-1.577219-7.480498-3.888893-10.52-6.81-3.015112-2.90808-5.439594-6.371626-7.14-10.2-3.487265-8.031111-3.487265-17.148889,0-25.18c1.675976-3.823286,4.088553-7.279049,7.1-10.17c3.065303-2.917738,6.64608-5.240495,10.56-6.85c4.097174-1.686609,8.489358-2.539889,12.92-2.51c5.021393-.069442,9.988641,1.043906,14.5,3.25c4.260429,2.09039,8.042868,5.038718,11.11,8.66L97.08,74c-1.995866-2.870816-4.67695-5.19786-7.8-6.77-3.031474-1.37591-6.331417-2.059128-9.66-2-2.835136-.019828-5.64493.534647-8.26,1.63-2.514489,1.037958-4.808593,2.544737-6.76,4.44-1.935956,1.867057-3.497291,4.086868-4.6,6.54-2.213877,5.134872-2.213877,10.955128,0,16.09c2.223914,5.008853,6.287169,8.97187,11.35,11.07c2.616824,1.088495,5.425884,1.639425,8.26,1.62c2.699814.016969,5.375712-.50665,7.87-1.54c2.420323-.998921,4.662734-2.383542,6.64-4.1v-6h-12.68v-10.14h24.21Z"
                fill="#fff" />
        </g>
    </g>
</svg>